<?xml version="1.0" standalone="no"?>
<!DOCTYPE svg PUBLIC "-//W3C//DTD SVG 20010904//EN"
 "http://www.w3.org/TR/2001/REC-SVG-20010904/DTD/svg10.dtd">
<svg version="1.0" xmlns="http://www.w3.org/2000/svg"
 width="318.000000pt" height="318.000000pt" viewBox="0 0 318.000000 318.000000"
 preserveAspectRatio="xMidYMid meet">
<metadata>
Created by potrace 1.11, written by Peter Selinger 2001-2013
</metadata>
<g transform="translate(0.000000,318.000000) scale(0.100000,-0.100000)"
fill="#000000" stroke="none">
<path d="M1519 3107 c-39 -39 -76 -82 -83 -96 -22 -43 -26 -111 -10 -159 24
-70 21 -72 -113 -70 -131 1 -180 -9 -258 -56 -46 -27 -66 -42 -152 -116 -42
-36 -62 -73 -84 -151 -16 -59 -18 -81 -9 -161 12 -123 24 -153 83 -218 65 -72
87 -83 175 -84 67 -1 76 1 94 24 30 37 20 98 -26 165 -35 50 -37 56 -27 93 17
61 51 103 96 119 35 12 45 12 83 -2 23 -9 42 -20 42 -24 0 -4 11 -21 25 -37
14 -16 27 -38 29 -49 30 -153 21 -238 -34 -341 -35 -66 -143 -178 -187 -195
-42 -16 -163 -20 -203 -6 -47 15 -111 55 -131 81 -61 78 -110 164 -137 240
-40 114 -55 136 -91 136 -62 0 -151 -68 -185 -141 -13 -30 -40 -89 -60 -131
-24 -54 -40 -78 -53 -79 -10 0 -50 -2 -90 -4 -81 -4 -131 -25 -181 -76 -27
-28 -32 -40 -32 -81 0 -44 4 -53 43 -91 36 -37 55 -46 130 -67 134 -35 136
-39 151 -190 8 -84 33 -142 80 -187 25 -24 54 -43 64 -43 11 0 50 34 93 82 88
99 103 113 149 137 19 11 49 31 65 45 17 14 35 26 40 26 6 0 24 8 40 17 24 13
54 16 143 14 116 -2 160 -13 190 -50 35 -43 112 -168 112 -183 0 -9 3 -18 8
-20 4 -1 20 -29 36 -61 26 -53 28 -63 21 -129 -4 -48 -15 -88 -33 -121 -15
-27 -31 -58 -37 -68 -11 -22 -93 -59 -130 -59 -25 0 -73 24 -87 45 -14 19 -8
90 12 148 26 75 25 119 -4 165 -70 111 -183 95 -282 -39 l-39 -53 0 -116 c0
-151 24 -219 106 -301 109 -108 217 -148 400 -149 79 0 98 -3 103 -16 10 -26
7 -53 -10 -87 -22 -42 -20 -125 4 -179 24 -54 108 -133 156 -146 43 -12 109 6
145 39 34 31 69 93 75 130 17 105 16 125 -8 188 -18 44 -21 63 -13 66 7 2 73
11 147 19 167 19 238 50 318 138 69 77 86 134 86 293 l0 120 -51 95 c-58 110
-74 121 -148 100 -36 -10 -53 -22 -73 -53 -53 -79 -56 -86 -42 -128 8 -22 19
-44 27 -50 18 -16 35 -86 28 -118 -3 -16 -20 -42 -37 -60 -76 -78 -212 -8
-264 136 -20 56 -18 207 3 267 26 72 164 210 233 234 38 14 168 15 222 3 79
-18 169 -127 228 -276 13 -33 27 -62 30 -65 4 -3 9 -12 13 -22 3 -9 22 -19 46
-23 36 -6 45 -3 74 20 17 15 39 36 47 47 8 11 27 35 42 52 28 34 68 124 68
155 0 10 10 33 23 51 21 31 74 57 183 91 44 13 102 73 109 113 9 44 -14 87
-59 115 -36 23 -172 61 -216 61 -22 0 -29 6 -38 38 -15 49 -23 105 -27 170 -3
55 -22 93 -64 129 -25 22 -61 31 -61 15 0 -4 -38 -47 -85 -97 -48 -49 -96
-102 -108 -118 -52 -67 -85 -100 -137 -135 l-55 -37 -115 0 c-98 0 -122 4
-166 23 -68 31 -117 84 -178 194 -47 84 -47 196 1 308 30 71 39 84 85 121 61
48 98 57 141 32 48 -28 48 -74 3 -166 -56 -113 -51 -178 17 -223 32 -21 52
-27 90 -25 102 3 168 53 224 169 l35 73 -4 122 c-5 112 -8 127 -37 186 -84
167 -154 206 -395 217 l-138 7 5 46 c4 25 11 69 17 96 14 66 -3 122 -55 185
-22 26 -44 55 -50 64 -5 9 -25 20 -43 26 -32 9 -35 6 -103 -63z"/>
</g>
</svg>
